<svg width="110" height="109" viewBox="0 0 110 109" fill="none" xmlns="http://www.w3.org/2000/svg">
<g opacity="0.44" filter="url(#filter0_i)">
<path fill-rule="evenodd" clip-rule="evenodd" d="M54.5 106C82.9427 106 106 82.9427 106 54.5C106 26.0573 82.9427 3 54.5 3C26.0573 3 3 26.0573 3 54.5C3 82.9427 26.0573 106 54.5 106ZM54.5 109C84.5995 109 109 84.5995 109 54.5C109 24.4005 84.5995 0 54.5 0C24.4005 0 0 24.4005 0 54.5C0 84.5995 24.4005 109 54.5 109Z" fill="#2A2A2A"/>
</g>
<g opacity="0.46">
<line x1="5.23816" y1="53.6449" x2="104.844" y2="53.6449" stroke="white"/>
<line x1="55.481" y1="79.3731" x2="55.481" y2="4.19852" stroke="white"/>
<line x1="11.6606" y1="78.6136" x2="97.9222" y2="28.8104" stroke="white"/>
<line x1="38.6314" y1="82.8851" x2="79.5076" y2="10.7675" stroke="white"/>
<line x1="12.1606" y1="28.8103" x2="98.4222" y2="78.6135" stroke="white"/>
<line x1="29.9899" y1="10.0651" x2="71.4507" y2="82.8843" stroke="white"/>
</g>
<defs>
<filter id="filter0_i" x="-1" y="0" width="110" height="109" filterUnits="userSpaceOnUse" color-interpolation-filters="sRGB">
<feFlood flood-opacity="0" result="BackgroundImageFix"/>
<feBlend mode="normal" in="SourceGraphic" in2="BackgroundImageFix" result="shape"/>
<feColorMatrix in="SourceAlpha" type="matrix" values="0 0 0 0 0 0 0 0 0 0 0 0 0 0 0 0 0 0 127 0" result="hardAlpha"/>
<feOffset dx="-1"/>
<feGaussianBlur stdDeviation="1"/>
<feComposite in2="hardAlpha" operator="arithmetic" k2="-1" k3="1"/>
<feColorMatrix type="matrix" values="0 0 0 0 0 0 0 0 0 0 0 0 0 0 0 0 0 0 0.43 0"/>
<feBlend mode="normal" in2="shape" result="effect1_innerShadow"/>
</filter>
</defs>
</svg>
